# xmcd
# 
# Track frame offsets:
#     150
#     37452
#     72008
#     103460
#     137440
#     169938
#     212347
#     249690
#     288410
# 
# Disc length: 4356
# 
# Revision: 2
# Processed by: cddbd v1.5.2PL0 Copyright (c) Steve Scherf et al.
# Submitted via: fre:ac v1.0.31
# 
DISCID=8b110209
DTITLE=Keith Jarrett - Creation
DYEAR=2015
DGENRE=Jazz
TTITLE0=Part I Toronto June 25
TTITLE1=Part II Tokyo May 9
TTITLE2=Part III Paris July 4
TTITLE3=Part IV Rome July 11
TTITLE4=Part V Tokyo May 9
TTITLE5=Part VI Tokyo May 6
TTITLE6=Part VII Rome July 11
TTITLE7=Part VIII Rome July 11
TTITLE8=Part IX Tokyo April 30
EXTD=
EXTT0=
EXTT1=
EXTT2=
EXTT3=
EXTT4=
EXTT5=
EXTT6=
EXTT7=
EXTT8=
PLAYORDER=
